<?xml version="1.0" standalone="no"?><!DOCTYPE svg PUBLIC "-//W3C//DTD SVG 1.1//EN" "http://www.w3.org/Graphics/SVG/1.1/DTD/svg11.dtd"><svg t="1762266414442" class="icon" viewBox="0 0 1024 1024" version="1.1" xmlns="http://www.w3.org/2000/svg" p-id="26940" xmlns:xlink="http://www.w3.org/1999/xlink" width="200" height="200"><path d="M787.2 908.8c0 64 51.2 115.2 115.2 115.2s115.2-51.2 115.2-115.2c0-44.8-38.4-134.4-115.2-275.2-70.4 140.8-115.2 230.4-115.2 275.2zM812.8 633.6l70.4-70.4-217.6-217.6L512 185.6 441.6 115.2 326.4 0l-51.2 57.6-19.2 12.8 115.2 115.2L0 556.8l441.6 441.6 371.2-364.8zM147.2 556.8l179.2-179.2 115.2-115.2 160 153.6 140.8 140.8H147.2z" fill="" p-id="26941"></path></svg>