<?xml version="1.0" standalone="no"?><!DOCTYPE svg PUBLIC "-//W3C//DTD SVG 1.1//EN" "http://www.w3.org/Graphics/SVG/1.1/DTD/svg11.dtd"><svg t="1762266427020" class="icon" viewBox="0 0 1024 1024" version="1.1" xmlns="http://www.w3.org/2000/svg" p-id="27972" xmlns:xlink="http://www.w3.org/1999/xlink" width="200" height="200"><path d="M410.56 517.568h196.352l-64-170.048a2370.88 2370.88 0 0 1-36.416-102.848c-7.68 31.168-17.088 61.888-28.224 91.968L410.56 517.568z" p-id="27973"></path><path d="M96 0A96 96 0 0 0 0 96v832A96 96 0 0 0 96 1024h832a96 96 0 0 0 96-96v-832A96 96 0 0 0 928 0h-832z m545.216 608h-263.04l-72.576 200.128H192L453.248 128h107.2l278.4 680.128h-120.512L641.216 608z" p-id="27974"></path></svg>