<?xml version="1.0" standalone="no"?><!DOCTYPE svg PUBLIC "-//W3C//DTD SVG 1.1//EN" "http://www.w3.org/Graphics/SVG/1.1/DTD/svg11.dtd"><svg t="1762266154586" class="icon" viewBox="0 0 1024 1024" version="1.1" xmlns="http://www.w3.org/2000/svg" p-id="12802" xmlns:xlink="http://www.w3.org/1999/xlink" width="200" height="200"><path d="M469.333333 853.333333a42.666667 42.666667 0 0 1 0 85.333334H298.666667a213.333333 213.333333 0 0 1-213.333334-213.333334V256a213.333333 213.333333 0 0 1 213.333334-213.333333h341.333333a213.333333 213.333333 0 0 1 213.333333 213.333333v170.666667a42.666667 42.666667 0 0 1-85.333333 0V256a128 128 0 0 0-128-128H298.666667a128 128 0 0 0-128 128v469.333333a128 128 0 0 0 128 128h170.666666z m213.333334-341.333333h170.666666a128 128 0 0 1 128 128v213.333333a128 128 0 0 1-128 128h-170.666666a128 128 0 0 1-128-128v-213.333333a128 128 0 0 1 128-128z m0 85.333333a42.666667 42.666667 0 0 0-42.666667 42.666667v213.333333a42.666667 42.666667 0 0 0 42.666667 42.666667h170.666666a42.666667 42.666667 0 0 0 42.666667-42.666667v-213.333333a42.666667 42.666667 0 0 0-42.666667-42.666667h-170.666666zM306.304 341.333333a42.666667 42.666667 0 0 1 0-85.333333H640a42.666667 42.666667 0 0 1 0 85.333333H306.304z m0 213.333334a42.666667 42.666667 0 0 1 0-85.333334H512a42.666667 42.666667 0 0 1 0 85.333334H306.304z m0 213.333333a42.666667 42.666667 0 0 1 0-85.333333H426.666667a42.666667 42.666667 0 0 1 0 85.333333H306.304z" p-id="12803"></path></svg>