<?xml version="1.0" standalone="no"?><!DOCTYPE svg PUBLIC "-//W3C//DTD SVG 1.1//EN" "http://www.w3.org/Graphics/SVG/1.1/DTD/svg11.dtd"><svg t="1762266082115" class="icon" viewBox="0 0 1024 1024" version="1.1" xmlns="http://www.w3.org/2000/svg" p-id="7780" xmlns:xlink="http://www.w3.org/1999/xlink" width="200" height="200"><path d="M548.8 177.6H624v148.8h-75.2v-148.8zM102.4 102.4h75.2V400c0 44.8 30.4 75.2 75.2 75.2h446.4c44.8 0 75.2-30.4 75.2-75.2V102.4h75.2v372.8h75.2V102.4c0-44.8-30.4-75.2-75.2-75.2H102.4c-44.8 0-75.2 30.4-75.2 75.2v819.2c0 44.8 30.4 75.2 75.2 75.2H624v-75.2H102.4V102.4z m148.8 0h446.4V400H251.2V102.4zM944 683.2l-156.8-156.8-51.2 52.8 118.4 118.4h-528v75.2h528L736 891.2l52.8 52.8 156.8-156.8 52.8-52.8-54.4-51.2z" fill="#2C2C2C" p-id="7781"></path></svg>