<?xml version="1.0" standalone="no"?><!DOCTYPE svg PUBLIC "-//W3C//DTD SVG 1.1//EN" "http://www.w3.org/Graphics/SVG/1.1/DTD/svg11.dtd"><svg t="1762266332251" class="icon" viewBox="0 0 1024 1024" version="1.1" xmlns="http://www.w3.org/2000/svg" p-id="18614" xmlns:xlink="http://www.w3.org/1999/xlink" width="200" height="200"><path d="M276.756757 276.756757v-13.837838c0-30.581622 24.76973-55.351351 55.351351-55.351351h428.972973c30.581622 0 55.351351 24.76973 55.351351 55.351351v428.972973c0 30.581622-24.76973 55.351351-55.351351 55.351351h-13.837838V332.108108c0-30.581622-24.76973-55.351351-55.351351-55.351351H276.756757z" fill="#707070" p-id="18615"></path><path d="M663.385946 774.877405H290.594595c-22.970811 0-41.513514-18.542703-41.513514-41.513513v-372.652973c0-22.970811 18.542703-41.513514 41.513514-41.513514h372.791351c22.970811 0 41.513514 18.542703 41.513513 41.513514v372.652973c0 22.970811-18.542703 41.513514-41.513513 41.513513z m-20.396973-321.037837l-17.615568-17.615568a13.879351 13.879351 0 0 0-19.566702 0L435.850378 606.194162l-70.752864-70.752865a13.879351 13.879351 0 0 0-19.566703 0l-17.615568 17.615568a13.879351 13.879351 0 0 0 0 19.566703l98.151784 98.137946a13.879351 13.879351 0 0 0 19.566703 0l197.355243-197.355244a13.879351 13.879351 0 0 0 0-19.566702z" fill="#707070" p-id="18616"></path></svg>