<?xml version="1.0" standalone="no"?><!DOCTYPE svg PUBLIC "-//W3C//DTD SVG 1.1//EN" "http://www.w3.org/Graphics/SVG/1.1/DTD/svg11.dtd"><svg t="1762266346320" class="icon" viewBox="0 0 1024 1024" version="1.1" xmlns="http://www.w3.org/2000/svg" p-id="19596" xmlns:xlink="http://www.w3.org/1999/xlink" width="200" height="200"><path d="M982.4 151.04H41.6a33.28 33.28 0 0 1 0-64h940.8a33.28 33.28 0 0 1 0 64zM982.4 398.72H538.88a32.64 32.64 0 1 1 0-64h443.52a32.64 32.64 0 1 1 0 64zM982.4 712.96H538.88a32.64 32.64 0 0 1 0-64h443.52a32.64 32.64 0 0 1 0 64zM982.4 938.88H41.6a33.28 33.28 0 0 1 0-64h940.8a33.28 33.28 0 0 1 0 64zM41.6 790.4a27.52 27.52 0 0 1-12.16 0 32 32 0 0 1-20.48-30.08V282.88A32 32 0 0 1 29.44 256a31.36 31.36 0 0 1 34.56 3.84l238.72 237.44a32.64 32.64 0 0 1 0 46.08L64 780.8a30.72 30.72 0 0 1-22.4 9.6z m32.64-428.8v320l158.72-161.28z" fill="#323333" p-id="19597"></path></svg>